#!OML:ASF F:\VICON\USERDATA\INSTALL\rory7\rory7.ASF
:FULLY-SPECIFIED
:DEGREES
451
root 0.337228 18.8279 2.56089 -4.4596 -4.44055 1.33688
lowerback 5.05284 1.78777 -1.87343
upperback 1.06441 2.24969 -1.60426
thorax -1.74386 1.12841 -0.74331
lowerneck -6.68638 -3.5066 -5.70974
upperneck 17.2117 -5.33547 7.34555
head 6.67498 -2.37525 2.88722
rclavicle -2.64321e-015 -2.82274e-014
rhumerus 19.0537 21.8379 -62.8033
rradius 129.488
rwrist -3.52261
rhand -34.2353 3.29031
rfingers 7.12502
rthumb -7.40668 -26.56
lclavicle -2.64321e-015 -2.82274e-014
lhumerus -27.7729 7.34375 76.4347
lradius 21.5225
lwrist -9.30224
lhand -25.5686 25.2413
lfingers 7.12502
lthumb 0.962427 55.2189
rfemur 8.16668 18.7393 18.2714
rtibia 9.55575
rfoot -12.2519 -23.0998
rtoes -5.85683
lfemur 7.76832 -9.68688 -19.0959
ltibia 8.3405
lfoot -10.836 18.2073
ltoes -5.09658
452
root 0.344193 18.8293 2.56064 -4.28042 -4.33249 1.75784
lowerback 4.78955 1.73114 -2.23325
upperback 1.0061 2.16024 -1.75685
thorax -1.66392 1.08497 -0.685467
lowerneck -6.65631 -3.50842 -5.69011
upperneck 17.1275 -5.34162 7.3703
head 6.64334 -2.37676 2.89139
rclavicle -1.39926e-014 -3.97569e-015
rhumerus 19.2853 21.639 -62.7545
rradius 129.359
rwrist -3.27878
rhand -34.1951 3.51798
rfingers 7.12502
rthumb -7.36791 -26.3337
lclavicle -1.39926e-014 -3.97569e-015
lhumerus -27.3511 6.90068 76.8159
lradius 21.4759
lwrist -9.21181
lhand -25.4754 25.9641
lfingers 7.12502
lthumb 1.05241 55.9412
rfemur 7.94378 18.67 17.6636
rtibia 9.57339
rfoot -12.3296 -23.0761
rtoes -5.6839
lfemur 7.52317 -9.75064 -19.5738
ltibia 8.37443
lfoot -10.7908 18.2248
ltoes -5.07443
453
root 0.340778 18.8274 2.56305 -4.3951 -4.41345 1.57216
lowerback 4.8489 1.73033 -2.10125
upperback 0.998877 2.16501 -1.68036
thorax -1.70262 1.08711 -0.683121
lowerneck -6.64426 -3.5136 -5.68066
upperneck 17.1135 -5.34319 7.33168
head 6.63565 -2.38044 2.87724
rclavicle 1.59971e-014 -3.97569e-015
rhumerus 19.4694 21.4767 -62.6435
rradius 129.225
rwrist -3.10732
rhand -34.4797 4.21072
rfingers 7.12502
rthumb -7.6426 -25.6312
lclavicle 1.59971e-014 -3.97569e-015
lhumerus -27.1135 6.5379 77.1664
lradius 21.502
lwrist -9.16623
lhand -25.4297 25.6446
lfingers 7.12502
lthumb 1.09653 55.6215
rfemur 8.08686 18.7352 17.9458
rtibia 9.59736
rfoot -12.391 -23.0567
rtoes -5.36323
lfemur 7.67035 -9.68884 -19.3708
ltibia 8.39774
lfoot -10.8493 18.2048
ltoes -5.05392
454
root 0.339667 18.827 2.56159 -4.41667 -4.4578 1.48953
lowerback 4.86493 1.7258 -2.0244
upperback 0.986317 2.16237 -1.66361
thorax -1.7223 1.08561 -0.709483
lowerneck -6.75098 -3.51033 -5.66712
upperneck 17.119 -5.3386 7.34332
head 6.65589 -2.37415 2.87754
rclavicle -1.61464e-014 3.97569e-015
rhumerus 19.6907 21.2715 -62.5233
rradius 129.124
rwrist -2.98044
rhand -34.6646 4.59256
rfingers 7.12502
rthumb -7.82109 -25.2428
lclavicle -1.61464e-014 3.97569e-015
lhumerus -26.8043 5.56129 77.7608
lradius 21.6689
lwrist -8.87084
lhand -25.2479 26.1629
lfingers 7.12502
lthumb 1.27211 56.1389
rfemur 8.06887 18.7714 18.0587
rtibia 9.66877
rfoot -12.4241 -23.0504
rtoes -5.42537
lfemur 7.71122 -9.65333 -19.2714
ltibia 8.35534
lfoot -10.8157 18.2197
ltoes -5.20201
455
root 0.338997 18.8275 2.5595 -4.40868 -4.49574 1.45885
lowerback 4.84225 1.70923 -1.98272
upperback 1.00505 2.14319 -1.68797
thorax -1.68786 1.07562 -0.755367
lowerneck -6.90088 -3.48019 -5.67658
upperneck 17.0729 -5.31028 7.47507
head 6.66921 -2.34816 2.92176
rclavicle 1.01586e-014 -1.86858e-014
rhumerus 19.9834 21.0338 -62.4406
rradius 129.036
rwrist -2.84922
rhand -34.7603 4.83578
rfingers 7.12502
rthumb -7.9134 -24.9961
lclavicle 1.01586e-014 -1.86858e-014
lhumerus -26.339 5.00763 78.121
lradius 21.6206
lwrist -8.85083
lhand -25.2819 26.1873
lfingers 7.12502
lthumb 1.23929 56.1635
rfemur 8.10071 18.8056 18.0968
rtibia 9.56049
rfoot -12.3633 -23.0604
rtoes -5.55111
lfemur 7.61137 -9.61852 -19.2305
ltibia 8.51799
lfoot -10.8467 18.2188
ltoes -5.42323
456
root 0.3386 18.8272 2.55938 -4.426 -4.51575 1.43285
lowerback 4.80441 1.68274 -1.96446
upperback 1.02104 2.11032 -1.6971
thorax -1.64922 1.05893 -0.771265
lowerneck -6.91719 -3.43893 -5.71596
upperneck 16.9271 -5.26842 7.64338
head 6.62773 -2.31879 2.98538
rclavicle 3.76992e-016 4.37326e-015
rhumerus 20.2493 20.8199 -62.3814
rradius 128.948
rwrist -2.62631
rhand -34.8577 4.90733
rfingers 7.12502
rthumb -8.00746 -24.921
lclavicle 3.76992e-016 4.37326e-015
lhumerus -26.0145 4.588 78.418
lradius 21.6196
lwrist -8.95379
lhand -25.3383 25.9558
lfingers 7.12502
lthumb 1.18487 55.9322
rfemur 8.14173 18.8228 18.1396
rtibia 9.52719
rfoot -12.3525 -23.0678
rtoes -5.58015
lfemur 7.60286 -9.60153 -19.2
ltibia 8.58579
lfoot -10.8807 18.1998
ltoes -5.38313
457
root 0.338756 18.8276 2.55877 -4.44655 -4.53064 1.41075
lowerback 4.7864 1.68018 -1.94638
upperback 1.01506 2.10794 -1.71523
thorax -1.64397 1.05765 -0.799353
lowerneck -6.93735 -3.45635 -5.65229
upperneck 16.8056 -5.29896 7.67799
head 6.59406 -2.3279 2.98226
rclavicle 2.81803e-014 -2.14687e-014
rhumerus 20.442 20.5758 -62.3104
rradius 128.865
rwrist -2.3559
rhand -34.8346 4.77946
rfingers 7.12502
rthumb -7.98509 -25.0497
lclavicle 2.81803e-014 -2.14687e-014
lhumerus -25.8065 4.12044 78.7161
lradius 21.63
lwrist -9.17975
lhand -25.6202 25.1872
lfingers 7.12502
lthumb 0.912534 55.165
rfemur 8.15738 18.8357 18.1752
rtibia 9.52592
rfoot -12.3202 -23.0913
rtoes -5.70543
lfemur 7.61493 -9.58916 -19.1766
ltibia 8.60847
lfoot -10.9192 18.1776
ltoes -5.16795
458
root 0.338902 18.828 2.55718 -4.44736 -4.57718 1.40965
lowerback 4.76657 1.69896 -1.94425
upperback 0.996325 2.13284 -1.7372
thorax -1.65126 1.07013 -0.824373
lowerneck -7.0533 -3.5201 -5.55331
upperneck 16.8066 -5.38538 7.61793
head 6.61708 -2.36548 2.93712
rclavicle 4.50372e-017 -2.38542e-014
rhumerus 20.65 20.3056 -62.1946
rradius 128.791
rwrist -2.21925
rhand -34.7217 4.617
rfingers 7.12502
rthumb -7.87613 -25.2163
lclavicle 4.50372e-017 -2.38542e-014
lhumerus -25.5227 3.81774 79.0041
lradius 21.5996
lwrist -9.5546
lhand -25.8375 24.8909
lfingers 7.12502
lthumb 0.702678 54.8695
rfemur 8.14521 18.8824 18.175
rtibia 9.49797
rfoot -12.2412 -23.1325
rtoes -5.83116
lfemur 7.60147 -9.54258 -19.1747
ltibia 8.64626
lfoot -10.9662 18.1536
ltoes -5.01855
459
root 0.339679 18.8272 2.55783 -4.43637 -4.63331 1.40492
lowerback 4.70682 1.67956 -1.95004
upperback 0.976758 2.10868 -1.71084
thorax -1.63917 1.05816 -0.791011
lowerneck -7.20996 -3.52466 -5.58305
upperneck 16.8916 -5.3786 7.57109
head 6.67103 -2.36325 2.92564
rclavicle 2.97866e-015 5.1684e-015
rhumerus 20.9381 20.1429 -62.0401
rradius 128.658
rwrist -2.10179
rhand -34.728 4.60117
rfingers 7.12502
rthumb -7.88228 -25.2319
lclavicle 2.97866e-015 5.1684e-015
lhumerus -25.2051 3.80631 79.2771
lradius 21.5981
lwrist -9.94493
lhand -25.7044 25.4839
lfingers 7.12502
lthumb 0.831251 55.462
rfemur 8.15268 18.9389 18.1683
rtibia 9.45629
rfoot -12.2203 -23.139
rtoes -5.81818
lfemur 7.59182 -9.48571 -19.1742
ltibia 8.68628
lfoot -10.9906 18.1384
ltoes -5.12892
460
root 0.340454 18.826 2.5606 -4.47212 -4.675 1.35283
lowerback 4.69382 1.62954 -1.9234
upperback 0.960434 2.04454 -1.64919
thorax -1.64992 1.02621 -0.738601
lowerneck -7.35073 -3.49523 -5.67771
upperneck 16.9647 -5.31637 7.52928
head 6.71629 -2.3386 2.93165
rclavicle 2.99575e-015 -3.57812e-015
rhumerus 21.2571 20.0564 -61.8552
rradius 128.491
rwrist -2.12114
rhand -34.9289 5.21228
rfingers 7.12502
rthumb -8.07615 -24.6134
lclavicle 2.99575e-015 -3.57812e-015
lhumerus -24.9871 3.98184 79.4823
lradius 21.5991
lwrist -10.3561
lhand -25.8409 25.4382
lfingers 7.12502
lthumb 0.699441 55.4168
rfemur 8.2165 18.9772 18.2385
rtibia 9.42377
rfoot -12.1897 -23.1347
rtoes -5.9559
lfemur 7.64606 -9.44834 -19.1299
ltibia 8.71319
lfoot -10.9963 18.1213
ltoes -5.2954
